<svg id="Layer_1" data-name="Layer 1" xmlns="http://www.w3.org/2000/svg" viewBox="0 0 1080 1080"><defs><style>.cls-1{fill:#ffe6e9;}.cls-2{fill:#a25b78;}.cls-3{fill:#ff967c;}.cls-4{fill:#a15d78;}</style></defs><rect class="cls-1" width="1080" height="1080"/><path class="cls-2" d="M574.65,556.72a26.38,26.38,0,0,1-3.83,2.72c-9,5.74-19,6.48-29.82,3.7-23.09-6-46.43-11.73-69.58-17.53-5.06-1.3-9.94-3.09-14.88-4.51-.56.31-1.05.68-1.54,1,5.55,15.62,10.55,31.55,16.67,47a373.17,373.17,0,0,0,16.91,37.23c-47-2.41-91.43-8.71-132.12-18.34v-.06c-1.24-5.49-2.22-10-3.27-14.57-4.26-19.39-8.83-38.65-12.72-58-4.51-21.61-7.66-43.35-8-65.51,0-3-2.16-6.24-4-8.83a411.42,411.42,0,0,1-41.86-74.21q-6.94-15.84-12.53-32.29c-3.22-9.7-7.6-19.14-7.17-29.88.68-15.81,14.45-30.5,30-33,17.84-2.84,32.35,7.34,39.45,21.67.31.61.62,1.23.93,1.79,9.44,18.89,22,35.81,35.93,51.74,11.42,13.15,23.4,25.87,36,37.9a357.93,357.93,0,0,0,76,56.06c17.65,9.64,36,18,54.39,26.31,9.2,4.19,19.39,6.05,28.59,10.24a33.34,33.34,0,0,1,17.65,19.27A36,36,0,0,1,574.65,556.72Z"/><path class="cls-2" d="M494.32,394.43c-37.16.19-67.54-29.35-67.22-67.09-.89-37.68,30.12-66.65,64.62-67.8a67.14,67.14,0,0,1,69.89,65.38C562.37,363.62,533.4,394.3,494.32,394.43Z"/><path class="cls-3" d="M813.14,380.93c.19,5.61-1.16,10.77-2.91,15.81-1,2.77-2,5.48-2.9,8.2a332.49,332.49,0,0,1-43.69,85.64c-1.49,2.06-3.23,4.71-3.23,7.1-.32,17.81-2.84,35.3-6.45,52.66-3.17,15.55-6.84,31-10.27,46.66-.58,2.9-1.29,5.81-2,9.1a1021,1021,0,0,1-108.35,20.2,301.58,301.58,0,0,0,15.16-32.79c4.91-12.39,8.91-25.17,13.36-37.69-.39-.25-.77-.58-1.23-.83-4,1.16-7.87,2.58-11.93,3.61-18.66,4.71-37.37,9.23-56,14.13-10,2.58-19,1.36-27-5.16a28.79,28.79,0,0,1-5-5.16c-10.45-13.94-6.26-35,10.2-42.6a54.88,54.88,0,0,1,5.48-2.19c5.81-2.07,11.88-3.55,17.49-6.07,14.72-6.65,29.5-13.36,43.69-21.17a286.25,286.25,0,0,0,61.12-45c10.13-9.69,19.75-19.88,29-30.47,11.49-13.16,21.88-27.23,29.62-43,4.65-9.49,13.36-16.65,24.2-17.69a32.76,32.76,0,0,1,7.49.26C801.46,356.4,812.56,368.21,813.14,380.93Z"/><path class="cls-3" d="M630.25,437.08a53.37,53.37,0,0,0,54-53.94c.72-30.3-24.21-53.59-51.95-54.51a54,54,0,0,0-56.19,52.56C575.54,412.3,598.84,437,630.25,437.08Z"/><path class="cls-4" d="M428,750a4.41,4.41,0,0,1,.54,2.36,6.76,6.76,0,0,1-1.37,4.45,27.14,27.14,0,0,1-7.32,6.64,15.33,15.33,0,0,1-7.75,2.05q-6.31,0-9.58-6.28T399.22,741a138.49,138.49,0,0,1,1.65-19.53h-.14Q393.54,741.2,387,762.08a6.44,6.44,0,0,1-1.79,3.09,4.82,4.82,0,0,1-3.09.86,4.28,4.28,0,0,1-4.45-3.44,79.7,79.7,0,0,1-2.8-13.75,129.68,129.68,0,0,1-1-16.18q0-4.74.28-8.25H374q-2.81,14.36-5.06,22.42a38,38,0,0,1-6.5,13.46,14.29,14.29,0,0,1-17.76,3.77,11.58,11.58,0,0,1-6.06-10.23,5.23,5.23,0,0,1,1.15-3.55A4,4,0,0,1,343,749a3.22,3.22,0,0,1,3.45,2.73,8.06,8.06,0,0,0,2.12,4.05,5,5,0,0,0,3.62,1.4q2.73,0,5.28-4.66t5.31-15q2.76-10.34,6-27.42a6.79,6.79,0,0,1,2.37-4.48,8.81,8.81,0,0,1,5.31-1.33q5.88,0,5.45,6.24c-.24,4.07-.35,7.75-.35,11.06a252.94,252.94,0,0,0,1.72,27.27h.14a161,161,0,0,1,5.81-18.66q4-10.7,8.4-20.17a22,22,0,0,1,2-3.66,4.85,4.85,0,0,1,1.94-1.61,7.61,7.61,0,0,1,3-.47,6.63,6.63,0,0,1,4.63,1.47,4.67,4.67,0,0,1,1.33,4.2q-1.8,18.09-1.79,28.2a54.83,54.83,0,0,0,1.36,13.82q1.37,5,4.52,5a8.07,8.07,0,0,0,4.56-1.47,29.25,29.25,0,0,0,5.42-5.35,2.38,2.38,0,0,1,1.94-1A1.66,1.66,0,0,1,428,750Z"/><path class="cls-4" d="M431.84,763a16.82,16.82,0,0,1-6.28-7.07,24.42,24.42,0,0,1-2.29-11,44.4,44.4,0,0,1,4.66-20.2,36.57,36.57,0,0,1,13.78-14.93q9.12-5.62,21.89-5.63a54.48,54.48,0,0,1,7.07.5,39,39,0,0,1,6.85,1.51,2.66,2.66,0,0,1,2,2.87,5.33,5.33,0,0,1-1.4,3.52,4.17,4.17,0,0,1-3.26,1.65,3.61,3.61,0,0,1-.86-.08q-3.74-.86-6.39-1.25a38.53,38.53,0,0,0-5.6-.4,26.61,26.61,0,0,0-15.5,4.42A27,27,0,0,0,437,728.64a38.83,38.83,0,0,0-3.15,15.65c0,4.06.8,7.21,2.4,9.43a7.4,7.4,0,0,0,6.28,3.34,10.12,10.12,0,0,0,7.68-3.59q3.3-3.59,6-11.62A172.34,172.34,0,0,0,461.59,720a3.83,3.83,0,0,1,1.72-2.73,7.11,7.11,0,0,1,3.45-.72c3.4,0,5.09,1.1,5.09,3.3a6.23,6.23,0,0,1-.21,1.44q-1.87,7-3.41,15.39a77.47,77.47,0,0,0-1.54,12.82q0,3.87,1.15,5.63a3.9,3.9,0,0,0,3.51,1.76,7.31,7.31,0,0,0,4.38-1.54A34.89,34.89,0,0,0,481,750.1a2.52,2.52,0,0,1,1.94-1,1.66,1.66,0,0,1,1.47.87,4.41,4.41,0,0,1,.54,2.36,6.76,6.76,0,0,1-1.37,4.45,32.18,32.18,0,0,1-6.89,6.46,14.61,14.61,0,0,1-8.25,2.23,11.34,11.34,0,0,1-8.11-2.91,13.63,13.63,0,0,1-3.88-8.22q-5.31,11.13-15.64,11.13A16.76,16.76,0,0,1,431.84,763Z"/><path class="cls-4" d="M565.69,750a4.41,4.41,0,0,1,.54,2.36,6.76,6.76,0,0,1-1.36,4.45,27.14,27.14,0,0,1-7.32,6.64,15.33,15.33,0,0,1-7.75,2.05q-6.31,0-9.58-6.28T537,741a138.49,138.49,0,0,1,1.65-19.53h-.14q-7.19,19.74-13.78,40.62a6.36,6.36,0,0,1-1.8,3.09,4.77,4.77,0,0,1-3.08.86,4.28,4.28,0,0,1-4.45-3.44,79.7,79.7,0,0,1-2.8-13.75,129.68,129.68,0,0,1-1-16.18q0-4.74.29-8.25h-.14q-2.81,14.36-5.06,22.42a38.21,38.21,0,0,1-6.5,13.46,14.29,14.29,0,0,1-17.76,3.77,11.56,11.56,0,0,1-6.07-10.23,5.28,5.28,0,0,1,1.15-3.55,4,4,0,0,1,3.23-1.33,3.22,3.22,0,0,1,3.45,2.73,8.05,8.05,0,0,0,2.11,4.05,5,5,0,0,0,3.63,1.4c1.82,0,3.57-1.55,5.27-4.66s3.47-8.11,5.32-15,3.83-16,6-27.42a6.79,6.79,0,0,1,2.37-4.48,8.81,8.81,0,0,1,5.31-1.33q5.88,0,5.45,6.24c-.24,4.07-.36,7.75-.36,11.06A253.21,253.21,0,0,0,521,748.81h.14a161,161,0,0,1,5.81-18.66q3.95-10.7,8.4-20.17a20.63,20.63,0,0,1,2-3.66,4.78,4.78,0,0,1,1.94-1.61,7.58,7.58,0,0,1,3-.47,6.65,6.65,0,0,1,4.63,1.47,4.67,4.67,0,0,1,1.33,4.2q-1.8,18.09-1.8,28.2a54.76,54.76,0,0,0,1.37,13.82c.91,3.33,2.41,5,4.52,5a8.07,8.07,0,0,0,4.56-1.47,29.25,29.25,0,0,0,5.42-5.35,2.37,2.37,0,0,1,1.93-1A1.65,1.65,0,0,1,565.69,750Z"/><path class="cls-4" d="M571.69,762.12a12.61,12.61,0,0,1-3.09-8.93,39.07,39.07,0,0,1,.93-7.68L574,725c.1-.38.33-1.44.69-3.16a28.11,28.11,0,0,0,.53-5.6,4.08,4.08,0,0,0-.68-2.58,2.21,2.21,0,0,0-1.83-.86,9.12,9.12,0,0,0-5,2,28.77,28.77,0,0,0-6,6.28,2.81,2.81,0,0,1-2.23,1.37,2.17,2.17,0,0,1-1.75-1,3.45,3.45,0,0,1-.76-2.19,8.93,8.93,0,0,1,2-5q7.32-10,17.15-10a8.92,8.92,0,0,1,6.86,2.65q2.48,2.65,2.48,7.83a41.33,41.33,0,0,1-.51,6.74c-.33,2.06-.91,4.86-1.72,8.4L580.23,743c-.1.43-.27,1.2-.5,2.3s-.44,2.14-.58,3.12a20.56,20.56,0,0,0-.21,2.91,5.11,5.11,0,0,0,1.29,3.66,4.79,4.79,0,0,0,3.66,1.36q4.3,0,8.72-4.59t8.18-14.82q3.76-10.23,5.85-26.16a12.77,12.77,0,0,1,1.47-5.1c.65-.95,1.9-1.43,3.77-1.43a4.5,4.5,0,0,1,3.73,1.51q1.21,1.5,1.22,4.88a36.67,36.67,0,0,1-.47,5.09c-.31,2.11-.77,5-1.4,8.83q-1.94,11-3.08,20.17a50.78,50.78,0,0,0-.58,6.17,6.74,6.74,0,0,0,1.33,4.49,4.49,4.49,0,0,0,3.56,1.54,8,8,0,0,0,4.62-1.58,30.28,30.28,0,0,0,5.35-5.24,2.53,2.53,0,0,1,1.94-1,1.66,1.66,0,0,1,1.47.87,4.41,4.41,0,0,1,.54,2.36,6.76,6.76,0,0,1-1.37,4.45,27.61,27.61,0,0,1-7.39,6.61,15.29,15.29,0,0,1-7.68,2.08q-6,0-9.11-3.05a10.52,10.52,0,0,1-3.16-7.93,90.51,90.51,0,0,1,1.15-10.62q-3.59,10.54-9.08,16.07a17.33,17.33,0,0,1-12.67,5.53Q574.77,765.46,571.69,762.12Z"/><path class="cls-4" d="M692.23,750a4.51,4.51,0,0,1,.53,2.36,6.76,6.76,0,0,1-1.36,4.45q-7.11,8.68-15.14,8.69a13.39,13.39,0,0,1-11.13-5.38Q661,754.7,661,744.65c0-1.63.07-3.26.22-4.89a100.81,100.81,0,0,1-10.34,1.3q-3.74.29-5.1.36-1.43,7.32-4,17.94c-1,4.16-2.92,6.24-5.75,6.24q-4.59,0-4.59-4.16a13,13,0,0,1,.36-2.58q2.44-9.84,3.87-16.65l-3.44.14a5.67,5.67,0,0,1-3.44-.83,3.16,3.16,0,0,1-1.08-2.69,4.22,4.22,0,0,1,1.36-3.48,7.83,7.83,0,0,1,4.52-1.26l3.81-.14a92.66,92.66,0,0,0,1.86-15.43c0-2.25-.33-3.78-1-4.59a3.26,3.26,0,0,0-2.66-1.22q-5,0-11.34,8.39a2.6,2.6,0,0,1-2.08,1.22,2.12,2.12,0,0,1-1.72-.93,3.76,3.76,0,0,1-.72-2.37,8.24,8.24,0,0,1,1.8-4.73,25.91,25.91,0,0,1,8-7.22,19,19,0,0,1,9.76-2.83,8.71,8.71,0,0,1,7.22,3.19q2.53,3.2,2.54,9.94a102.33,102.33,0,0,1-1.72,16.15l7-.36a72.29,72.29,0,0,0,7.75-.72A74.31,74.31,0,0,1,666,717.66a34.91,34.91,0,0,1,6.61-11.2q3.95-4.31,8.82-4.3a6.64,6.64,0,0,1,5.67,2.83,12.25,12.25,0,0,1,2.09,7.43q0,17.8-18.16,24.69-.22,2.86-.22,6,0,7.53,1.87,10.69a5.79,5.79,0,0,0,5.24,3.16,9.94,9.94,0,0,0,5.38-1.54,25.39,25.39,0,0,0,5.53-5.28,2.52,2.52,0,0,1,1.93-1A1.66,1.66,0,0,1,692.23,750Zm-14.5-38.69a36.64,36.64,0,0,0-3.34,7.82,74.18,74.18,0,0,0-2.51,10.84,17.42,17.42,0,0,0,8.47-6.74q2.73-4.38,2.73-11.27a5,5,0,0,0-.58-2.59,1.66,1.66,0,0,0-1.43-.93Q679.48,708.4,677.73,711.27Z"/><path class="cls-4" d="M699.26,762.59a20.77,20.77,0,0,1-8.15-8.43,27.59,27.59,0,0,1-3-13.32,44.14,44.14,0,0,1,4-19.23,31,31,0,0,1,10.84-12.85,27,27,0,0,1,15.18-4.52,23.22,23.22,0,0,1,11.52,2.87,20.63,20.63,0,0,1,8.14,8.43,27.59,27.59,0,0,1,3,13.32,44,44,0,0,1-4,19.23A30.93,30.93,0,0,1,726,760.94a27,27,0,0,1-15.18,4.52A23.22,23.22,0,0,1,699.26,762.59Zm22.1-9.05a21.7,21.7,0,0,0,6.57-9.58,39.42,39.42,0,0,0,2.3-13.88q0-8.55-3.59-13a11.39,11.39,0,0,0-9.26-4.41,15.08,15.08,0,0,0-9.76,3.41,22.16,22.16,0,0,0-6.6,9.54,38.55,38.55,0,0,0-2.37,14c0,5.7,1.19,10,3.59,13A11.39,11.39,0,0,0,711.5,757,15.22,15.22,0,0,0,721.36,753.54Z"/><path class="cls-4" d="M459.69,821a13.39,13.39,0,1,1,0-26.78,13.24,13.24,0,0,1,6.77,1.78,11.47,11.47,0,0,1,4.58,4.79l-4.73,2.75a6.57,6.57,0,0,0-2.62-2.88,7.82,7.82,0,0,0-4.05-1,7.59,7.59,0,0,0-5.63,2.29,8.32,8.32,0,0,0,0,11.4,7.59,7.59,0,0,0,5.63,2.29,7.76,7.76,0,0,0,4.05-1.07,7,7,0,0,0,2.72-2.85l4.74,2.7a12.13,12.13,0,0,1-4.69,4.84A13.14,13.14,0,0,1,459.69,821Z"/><path class="cls-4" d="M490.24,794.88h5.5v25.46h-5.5v-8.61a18.45,18.45,0,0,1-6.42,1.12,11.17,11.17,0,0,1-7.48-2.34q-2.74-2.34-2.75-6.87v-8.76h5.5v8.25q0,4.57,5.44,4.58a13.33,13.33,0,0,0,5.71-1.17Z"/><path class="cls-4" d="M522.31,794.88h5.5v25.46h-5.5v-3.67A10.29,10.29,0,0,1,513.4,821a12,12,0,0,1-9-3.89,14,14,0,0,1,0-19,12,12,0,0,1,9-3.87,10.35,10.35,0,0,1,8.91,4.28Zm-13.8,18.56a8.3,8.3,0,0,0,11.51,0,8.57,8.57,0,0,0,0-11.66,8.3,8.3,0,0,0-11.51,0,8.57,8.57,0,0,0,0,11.66Z"/><path class="cls-4" d="M546.24,821a13.39,13.39,0,1,1,0-26.78A13.29,13.29,0,0,1,553,796a11.53,11.53,0,0,1,4.58,4.79l-4.73,2.75a6.54,6.54,0,0,0-2.63-2.88,7.81,7.81,0,0,0-4-1,7.59,7.59,0,0,0-5.63,2.29,8.32,8.32,0,0,0,0,11.4,7.59,7.59,0,0,0,5.63,2.29,7.7,7.7,0,0,0,4-1.07,6.93,6.93,0,0,0,2.73-2.85l4.73,2.7a12,12,0,0,1-4.68,4.84A13.2,13.2,0,0,1,546.24,821Z"/><path class="cls-4" d="M580.86,794.88v5.3h-8.3v20.16h-5.5V800.18h-8.35v-5.3Z"/><path class="cls-4" d="M595.67,803.54a9.65,9.65,0,0,1,6.67,2.31,8.4,8.4,0,0,1,0,12.15,9.57,9.57,0,0,1-6.67,2.34h-11.1V794.88h5.5v8.66Zm.05,11.86a4,4,0,0,0,2.73-1,3.42,3.42,0,0,0,0-5,4,4,0,0,0-2.73-.94h-5.65v6.92Z"/><path class="cls-4" d="M613.44,810a7,7,0,0,0,2.8,4.46,9,9,0,0,0,5.34,1.55,7.46,7.46,0,0,0,6.57-3.16l4.53,2.65Q628.92,821,621.53,821a13.61,13.61,0,0,1-10-3.79,13,13,0,0,1-3.81-9.6,13.12,13.12,0,0,1,3.76-9.55,13,13,0,0,1,9.68-3.84,11.9,11.9,0,0,1,9.18,3.92,13.56,13.56,0,0,1,3.59,9.52,16.19,16.19,0,0,1-.2,2.29Zm-.05-4.48h15a7.31,7.31,0,0,0-2.57-4.68,7.42,7.42,0,0,0-4.71-1.58,7.75,7.75,0,0,0-5.09,1.68A7.6,7.6,0,0,0,613.39,805.47Z"/><rect class="cls-4" x="352.76" y="800.45" width="73.15" height="4.3" rx="2.15"/><rect class="cls-4" x="654.09" y="800.45" width="73.15" height="4.3" rx="2.15"/></svg>